#!OML:ASF I:\Actors\actors\Patient Classification 1\Patient 1\Session 1\Subject1.ASF
:FULLY-SPECIFIED
:DEGREES
1082
root 0.710629 17.5313 9.24808 6.75704 -3.63613 -10.9549
lowerback 5.22248 1.59788 9.96285
upperback -2.6906 2.9422 0.911239
thorax -5.33439 1.11096 -4.90196
lowerneck -19.0186 -3.19503 -1.03896
upperneck 38.9689 -6.8983 5.35326
head 17.9868 -2.1651 1.24331
rclavicle 2.26118e-014 5.32743e-014
rhumerus -51.4337 70.2581 -112.162
rradius 99.1388
rwrist -2.39008
rhand 1.55483 -36.6881
rfingers 7.12502
rthumb 27.0788 295.234
lclavicle 2.26118e-014 5.32743e-014
lhumerus -61.9596 -72.5018 116.143
lradius 86.2324
lwrist 57.4201
lhand -10.0967 -15.1182
lfingers 7.12502
lthumb 15.8905 14.2498
rfemur -3.29952 20.4964 29.0124
rtibia 5.29422
rfoot -12.4538 -22.4592
rtoes 6.13016
lfemur 4.15906 -29.2249 -8.67137
ltibia -1.00328
lfoot -12.3815 39.6037
ltoes -2.66579
1083
root 0.695972 17.5347 9.25804 6.61342 -3.53561 -11.0504
lowerback 5.26701 1.57159 9.81912
upperback -2.63795 2.90284 1.00537
thorax -5.31989 1.10099 -4.72024
lowerneck -18.9591 -3.19887 -1.06326
upperneck 38.961 -6.90194 5.37515
head 17.9693 -2.16857 1.25773
rclavicle -9.64106e-015 3.18055e-015
rhumerus -52.1979 69.6377 -112.762
rradius 99.4732
rwrist -4.47477
rhand 2.05448 -38.9295
rfingers 7.12502
rthumb 27.5567 293.068
lclavicle -9.64106e-015 3.18055e-015
lhumerus -62.1422 -72.2485 116.238
lradius 86.4252
lwrist 57.2268
lhand -10.1679 -15.1131
lfingers 7.12502
lthumb 15.822 14.2604
rfemur -3.00036 20.8716 29.3062
rtibia 5.23126
rfoot -12.563 -22.9225
rtoes 6.3111
lfemur 4.41921 -29.2408 -8.57313
ltibia -1.15573
lfoot -12.2906 39.5265
ltoes -2.87162
1084
root 0.700682 17.5377 9.2609 6.68344 -3.5089 -10.7361
lowerback 5.18621 1.58101 9.55038
upperback -2.65503 2.88231 0.918653
thorax -5.30024 1.09953 -4.65736
lowerneck -18.9775 -3.20729 -1.19702
upperneck 39.0212 -6.93703 5.53722
head 18.0288 -2.17752 1.35119
rclavicle 2.80783e-014 2.38542e-014
rhumerus -53.1146 69.1316 -113.454
rradius 99.7578
rwrist -6.37031
rhand 1.80754 -40.5427
rfingers 7.12502
rthumb 27.3205 291.417
lclavicle 2.80783e-014 2.38542e-014
lhumerus -62.1216 -71.9718 116.12
lradius 86.6482
lwrist 57.3639
lhand -10.4 -15.131
lfingers 7.12502
lthumb 15.5984 14.2601
rfemur -3.12402 20.7668 28.8784
rtibia 5.26467
rfoot -12.5848 -22.8668
rtoes 6.20471
lfemur 4.31186 -29.3844 -8.9741
ltibia -1.08505
lfoot -12.3431 39.6254
ltoes -2.7686
1085
root 0.712938 17.541 9.26202 6.78006 -3.46015 -10.3223
lowerback 5.10552 1.58076 9.30634
upperback -2.68369 2.84894 0.771792
thorax -5.29091 1.08882 -4.67066
lowerneck -19.0892 -3.20349 -1.35598
upperneck 39.198 -6.9918 5.78262
head 18.1904 -2.18142 1.48672
rclavicle -4.90501e-014 -4.21423e-014
rhumerus -54.2531 68.6862 -114.32
rradius 99.9922
rwrist -7.87386
rhand 1.11837 -41.656
rfingers 7.12502
rthumb 26.6611 290.202
lclavicle -4.90501e-014 -4.21423e-014
lhumerus -62.0286 -71.7572 115.95
lradius 86.8306
lwrist 57.3818
lhand -10.6773 -15.0289
lfingers 7.12502
lthumb 15.3314 14.3827
rfemur -3.28179 20.4561 28.282
rtibia 5.26293
rfoot -12.5863 -22.6399
rtoes 6.18933
lfemur 4.14473 -29.5601 -9.51662
ltibia -0.970963
lfoot -12.3852 39.7312
ltoes -2.70624
1086
root 0.71323 17.5401 9.26582 6.76032 -3.40631 -10.3754
lowerback 5.1146 1.57972 9.3684
upperback -2.66661 2.85262 0.782392
thorax -5.27566 1.08986 -4.69438
lowerneck -19.0709 -3.2088 -1.33098
upperneck 39.1552 -7.00647 5.78578
head 18.1605 -2.1841 1.47974
rclavicle -1.33683e-014 -1.27222e-014
rhumerus -55.3595 68.249 -115.147
rradius 100.162
rwrist -8.71474
rhand 0.493667 -42.3014
rfingers 7.12502
rthumb 26.0631 289.467
lclavicle -1.33683e-014 -1.27222e-014
lhumerus -62.0784 -71.6284 115.91
lradius 86.9306
lwrist 57.1413
lhand -11.0801 -14.912
lfingers 7.12502
lthumb 14.9433 14.5289
rfemur -3.22831 20.4301 28.3602
rtibia 5.24186
rfoot -12.581 -22.6705
rtoes 6.11577
lfemur 4.20055 -29.6141 -9.47418
ltibia -1.0169
lfoot -12.3701 39.7361
ltoes -2.70909
1087
root 0.699472 17.5364 9.27168 6.64943 -3.39818 -10.8276
lowerback 5.16854 1.60749 9.61755
upperback -2.59526 2.91807 0.949569
thorax -5.22012 1.12129 -4.66294
lowerneck -19.0797 -3.24041 -1.40791
upperneck 39.1582 -7.05358 5.85323
head 18.1762 -2.20432 1.51536
rclavicle 9.93923e-016 1.19271e-014
rhumerus -56.0365 67.8375 -115.56
rradius 100.32
rwrist -8.85248
rhand 0.220521 -42.6042
rfingers 7.12502
rthumb 25.8016 289.126
lclavicle 9.93923e-016 1.19271e-014
lhumerus -62.2246 -71.6071 115.993
lradius 87.0164
lwrist 56.9567
lhand -11.586 -14.7607
lfingers 7.12502
lthumb 14.4559 14.7158
rfemur -3.03272 20.7349 29.0214
rtibia 5.26719
rfoot -12.6364 -22.9282
rtoes 6.13855
lfemur 4.44378 -29.5259 -8.906
ltibia -1.2068
lfoot -12.3107 39.6723
ltoes -2.7778
1088
root 0.691098 17.5342 9.2756 6.59503 -3.40317 -11.0714
lowerback 5.17176 1.63608 9.73396
upperback -2.54398 2.96655 1.04781
thorax -5.16075 1.14751 -4.62704
lowerneck -18.9764 -3.22362 -1.25823
upperneck 39.0651 -7.01732 5.71905
head 18.0753 -2.19039 1.43207
rclavicle -2.08227e-014 -1.35174e-014
rhumerus -56.0975 66.9877 -115.478
rradius 100.416
rwrist -8.221
rhand 0.530191 -42.6786
rfingers 7.12502
rthumb 26.0981 289.095
lclavicle -2.08227e-014 -1.35174e-014
lhumerus -62.3854 -71.6544 116.145
lradius 87.1145
lwrist 56.9839
lhand -11.9747 -14.7013
lfingers 7.12502
lthumb 14.0814 14.8016
rfemur -2.94749 20.8816 29.3754
rtibia 5.30658
rfoot -12.6915 -23.043
rtoes 6.20635
lfemur 4.56446 -29.4633 -8.59215
ltibia -1.29761
lfoot -12.2533 39.6437
ltoes -2.92924
1089
root 0.691199 17.5331 9.27764 6.60469 -3.38969 -11.0893
lowerback 5.12671 1.63241 9.74606
upperback -2.5238 2.9567 1.0682
thorax -5.11555 1.14553 -4.6091
lowerneck -18.9742 -3.18548 -1.19674
upperneck 39.0952 -6.93898 5.61463
head 18.0768 -2.16394 1.3895
rclavicle 2.64384e-014 2.3059e-014
rhumerus -55.3713 65.2027 -114.798
rradius 100.408
rwrist -6.8828
rhand 1.92195 -42.4507
rfingers 7.12502
rthumb 27.4299 289.526
lclavicle 2.64384e-014 2.3059e-014
lhumerus -62.5109 -71.6983 116.268
lradius 87.2277
lwrist 57.2261
lhand -12.3001 -14.8118
lfingers 7.12502
lthumb 13.7678 14.7127
rfemur -2.96274 20.8879 29.3953
rtibia 5.33122
rfoot -12.7131 -23.0586
rtoes 6.22123
lfemur 4.55098 -29.4735 -8.56749
ltibia -1.28776
lfoot -12.2415 39.6509
ltoes -2.9379
1090
root 0.693774 17.5328 9.27853 6.61818 -3.39157 -11.0778
lowerback 5.08375 1.61031 9.74465
upperback -2.50643 2.9218 1.09055
thorax -5.07892 1.13114 -4.57981
lowerneck -18.9751 -3.13788 -1.20104
upperneck 39.1332 -6.854 5.58603
head 18.0918 -2.13399 1.39565
rclavicle -4.9398e-014 -5.08889e-014
rhumerus -55.7731 66.4191 -114.961
rradius 100.649
rwrist -7.62282
rhand 1.60855 -42.4297
rfingers 7.12502
rthumb 27.1302 289.5
lclavicle -4.9398e-014 -5.08889e-014
lhumerus -62.5749 -71.7132 116.326
lradius 87.3567
lwrist 57.6328
lhand -12.3967 -15.0276
lfingers 7.12502
lthumb 13.6747 14.5031
rfemur -2.98926 20.875 29.3656
rtibia 5.37073
rfoot -12.7598 -23.0251
rtoes 6.38071
lfemur 4.53728 -29.4941 -8.59574
ltibia -1.27009
lfoot -12.2955 39.673
ltoes -2.74382
